<?xml version="1.0" encoding="UTF-8" standalone="no"?>
<!-- Created with Inkscape (http://www.inkscape.org/) -->

<svg
   xmlns:dc="http://purl.org/dc/elements/1.1/"
   xmlns:cc="http://creativecommons.org/ns#"
   xmlns:rdf="http://www.w3.org/1999/02/22-rdf-syntax-ns#"
   xmlns:svg="http://www.w3.org/2000/svg"
   xmlns="http://www.w3.org/2000/svg"
   xmlns:sodipodi="http://sodipodi.sourceforge.net/DTD/sodipodi-0.dtd"
   xmlns:inkscape="http://www.inkscape.org/namespaces/inkscape"
   width="2160"
   height="1080"
   viewBox="0 0 2160 1080"
   id="svg3948"
   version="1.1"
   inkscape:version="0.91 r13725"
   inkscape:export-filename="C:\Users\thadeus\Desktop\g5663.png"
   inkscape:export-xdpi="90"
   inkscape:export-ydpi="90"
   sodipodi:docname="iVoC.svg">
  <defs
     id="defs3950">
    <filter
       x="-0.25"
       width="1.5"
       y="-0.25"
       height="1.5"
       inkscape:menu="Non realistic 3D shaders"
       inkscape:menu-tooltip="Comics cartoon drawing effect"
       inkscape:label="Drop Shadow"
       style="color-interpolation-filters:sRGB"
       id="filter7017">
      <feGaussianBlur
         in="SourceGraphic"
         stdDeviation="5"
         result="result8"
         id="feGaussianBlur7019" />
      <feComposite
         in2="result8"
         operator="xor"
         result="result19"
         id="feComposite7021" />
      <feComposite
         k4="0"
         k3="0"
         k1="0"
         k2="1"
         operator="arithmetic"
         result="result17"
         in2="result8"
         id="feComposite7023" />
      <feOffset
         result="result18"
         in="SourceGraphic"
         id="feOffset7025" />
      <feDisplacementMap
         in2="result17"
         in="result18"
         xChannelSelector="A"
         yChannelSelector="A"
         scale="100"
         result="result4"
         id="feDisplacementMap7027" />
      <feComposite
         k4="0"
         k2="0"
         k1="0"
         in2="result4"
         result="result2"
         operator="arithmetic"
         in="SourceGraphic"
         k3="1"
         id="feComposite7029" />
      <feComposite
         in2="SourceGraphic"
         result="fbSourceGraphic"
         in="result2"
         operator="in"
         id="feComposite7031" />
      <feComposite
         in2="SourceGraphic"
         operator="in"
         result="result15"
         id="feComposite7033" />
      <feComposite
         result="fbSourceGraphic"
         in2="SourceGraphic"
         operator="in"
         in="result15"
         id="feComposite7035" />
      <feColorMatrix
         result="fbSourceGraphicAlpha"
         in="fbSourceGraphic"
         values="0 0 0 -1 0 0 0 0 -1 0 0 0 0 -1 0 0 0 0 1 0"
         id="feColorMatrix3890" />
      <feFlood
         id="feFlood3892"
         flood-opacity="1"
         flood-color="rgb(0,0,0)"
         result="flood"
         in="fbSourceGraphic" />
      <feComposite
         id="feComposite3894"
         in2="fbSourceGraphic"
         in="flood"
         operator="out"
         result="composite1" />
      <feGaussianBlur
         id="feGaussianBlur3896"
         in="composite1"
         stdDeviation="1"
         result="blur" />
      <feOffset
         id="feOffset3898"
         dx="-0.5"
         dy="-0.5"
         result="offset" />
      <feComposite
         id="feComposite3900"
         in2="fbSourceGraphic"
         in="offset"
         operator="atop"
         result="composite2" />
    </filter>
    <filter
       style="color-interpolation-filters:sRGB"
       inkscape:label="Drop Shadow"
       id="filter5775">
      <feFlood
         flood-opacity="1"
         flood-color="rgb(0,0,0)"
         result="flood"
         id="feFlood5777" />
      <feComposite
         in="flood"
         in2="SourceGraphic"
         operator="out"
         result="composite1"
         id="feComposite5779" />
      <feGaussianBlur
         in="composite1"
         stdDeviation="3"
         result="blur"
         id="feGaussianBlur5781" />
      <feOffset
         dx="5"
         dy="2"
         result="offset"
         id="feOffset5783" />
      <feComposite
         in="offset"
         in2="SourceGraphic"
         operator="atop"
         result="composite2"
         id="feComposite5785" />
    </filter>
  </defs>
  <sodipodi:namedview
     id="base"
     pagecolor="#ffffff"
     bordercolor="#666666"
     borderopacity="1.0"
     inkscape:pageopacity="0.0"
     inkscape:pageshadow="2"
     inkscape:zoom="0.35"
     inkscape:cx="536.7604"
     inkscape:cy="520"
     inkscape:document-units="px"
     inkscape:current-layer="layer1"
     showgrid="false"
     units="px"
     inkscape:window-width="828"
     inkscape:window-height="403"
     inkscape:window-x="52"
     inkscape:window-y="52"
     inkscape:window-maximized="0" />
  <metadata
     id="metadata3953">
    <rdf:RDF>
      <cc:Work
         rdf:about="">
        <dc:format>image/svg+xml</dc:format>
        <dc:type
           rdf:resource="http://purl.org/dc/dcmitype/StillImage" />
        <dc:title></dc:title>
      </cc:Work>
    </rdf:RDF>
  </metadata>
  <g
     inkscape:label="Ebene 1"
     inkscape:groupmode="layer"
     id="layer1"
     transform="translate(0,27.637839)">
    <g
       id="g5663"
       transform="matrix(2.1355087,0,0,2.5,-837.53335,-1320.3289)"
       style="filter:url(#filter5775)"
       inkscape:export-filename="C:\Users\thadeus\Desktop\g5663.png"
       inkscape:export-xdpi="90"
       inkscape:export-ydpi="90">
      <path
         sodipodi:nodetypes="ccccc"
         inkscape:connector-curvature="0"
         id="path3344"
         d="m 943.5,667.36214 c -1.5,133 -2,132 -2,132 l 9.5,-10.5 c -5.30018,-33.94957 -8.61694,-69.82652 0.5,-113 z"
         style="fill:none;fill-rule:evenodd;stroke:#000000;stroke-width:0.4327921px;stroke-linecap:butt;stroke-linejoin:miter;stroke-opacity:1" />
      <ellipse
         ry="4.25"
         rx="5"
         cy="657.11212"
         cx="946.5"
         id="path3346"
         style="opacity:0.7;fill:#c8b7b7;fill-opacity:1;fill-rule:evenodd;stroke:#000000;stroke-width:0.64226347;stroke-linecap:square;stroke-linejoin:miter;stroke-miterlimit:4;stroke-dasharray:15.41432336, 0.64226347;stroke-dashoffset:0;stroke-opacity:1" />
      <path
         sodipodi:nodetypes="ccccccc"
         inkscape:connector-curvature="0"
         id="path4148"
         d="m 950,596.86214 c 67.5,196.5 75,218 75,218 l 54.5,-152 -14.5,3 c -17.6777,65.38522 -14.3653,54.26713 -33.5,117.5 -34.30439,-50.18837 -53.87524,-110.05191 -65.5,-177.5 z"
         style="fill:none;fill-rule:evenodd;stroke:#000000;stroke-width:0.4327921px;stroke-linecap:butt;stroke-linejoin:miter;stroke-opacity:1" />
      <text
         transform="scale(0.85624129,1.1678951)"
         sodipodi:linespacing="125%"
         id="text4156"
         y="678.98407"
         x="1253.1534"
         style="font-style:normal;font-weight:normal;font-size:83.17591095px;line-height:125%;font-family:sans-serif;letter-spacing:0px;word-spacing:0px;fill:#b1b1b1;fill-opacity:1;stroke:#000000;stroke-width:0.4327921px;stroke-linecap:butt;stroke-linejoin:miter;stroke-opacity:1"
         xml:space="preserve"><tspan
           y="678.98407"
           x="1253.1534"
           id="tspan4158"
           sodipodi:role="line"
           style="stroke-width:0.4327921px">o C</tspan></text>
      <path
         inkscape:connector-curvature="0"
         id="path4160"
         d="m 941.1138,785.92388 c 0.1601,-6.1875 0.5412,-34.3125 0.8471,-62.5 0.3059,-28.1875 0.664,-51.79226 0.7957,-52.45504 0.2272,-1.14344 0.3933,-1.05398 3.249,1.75 3.4724,3.40936 3.3555,2.08998 1.2584,14.20504 -4.7784,27.606 -4.8656,56.14708 -0.2736,89.5 0.5491,3.9875 1.105,8.4875 1.2355,10 l 0.2372,2.75 -3.8201,4 -3.8201,4 0.2909,-11.25 z"
         style="opacity:0.7;fill:#c8b7b7;fill-opacity:1;fill-rule:evenodd;stroke:none;stroke-width:1.48399997;stroke-linecap:square;stroke-linejoin:miter;stroke-miterlimit:4;stroke-dasharray:35.616, 1.484;stroke-dashoffset:0;stroke-opacity:1" />
      <path
         inkscape:connector-curvature="0"
         id="path4162"
         d="m 1025.8586,806.04888 c -1.2685,-3.78125 -17.7448,-51.74437 -36.6141,-106.58472 -18.8692,-54.84034 -34.3077,-99.76865 -34.3077,-99.84069 0,-0.072 3.0938,1.62017 6.875,3.76046 l 6.875,3.89144 0.6361,3.19926 c 0.3499,1.75959 1.6267,8.26175 2.8374,14.44925 11.7528,60.06564 30.8752,111.07768 56.8427,151.63674 2.5048,3.91229 4.8063,7.50701 5.1143,7.98826 1.1765,1.83801 0.6302,3.36525 10.2386,-28.625 7.0009,-23.30842 10.5095,-35.69225 18.3451,-64.75 3.4853,-12.925 6.3875,-23.55457 6.4493,-23.62127 0.1819,-0.19627 12.4394,-2.64595 12.5403,-2.50619 0.1909,0.26453 -52.9397,147.87746 -53.2259,147.87746 -0.1649,0 -1.3376,-3.09375 -2.6061,-6.875 z"
         style="opacity:0.7;fill:#c8b7b7;fill-opacity:1;fill-rule:evenodd;stroke:none;stroke-width:1.48399997;stroke-linecap:square;stroke-linejoin:miter;stroke-miterlimit:4;stroke-dasharray:35.616, 1.484;stroke-dashoffset:0;stroke-opacity:1" />
      <path
         inkscape:connector-curvature="0"
         d="m 1101.7204,746.70523 c -1.1571,-0.1466 -2.2965,-0.38205 -3.4389,-0.61393 -0.7762,-0.15649 -1.5676,-0.19395 -2.3568,-0.21878 -0.9431,-0.0206 -1.8865,-0.0162 -2.8298,-0.0147 -1.0006,0.002 -2.0013,0.003 -3.002,0.004 -0.1669,7e-5 -0.3339,1.6e-4 -0.5009,2.2e-4 -0.5005,1.7e-4 -1.001,2.3e-4 -1.5015,2.7e-4 -0.5325,3e-5 -0.6616,-0.042 -0.4065,0.0244 -0.093,0.0171 -0.1892,0.0226 -0.2794,0.0512 -0.022,0.007 0.089,0.006 0.068,0.0157 -0.059,0.026 -1.1603,0.37948 -0.934,0.3935 -0.5984,0.32777 -0.5384,0.38842 -1.3909,1.11819 -0.1743,0.01 -1.0667,1.24502 -0.7918,0.97071 0.2947,-0.58852 0.145,0.34437 0.1394,0.53025 -0.016,0.92656 -0.01,1.85335 0,2.77999 0,1.00714 0.01,2.01429 0.01,3.02143 6e-4,1.00158 5e-4,2.00315 5e-4,3.00472 -10e-5,1.12291 -10e-5,2.24582 -10e-5,3.36873 0,1.65213 0,3.30425 0,4.95637 0,1.51057 0,3.02114 0,4.53171 0.046,0.81194 0.3151,1.52929 0.5534,2.29502 0.4651,1.69821 0.8667,3.41466 1.143,5.15424 0.3218,1.85947 0.9397,3.64908 1.511,5.44226 0.7258,1.69279 1.7553,3.22549 2.8832,4.67242 0,0.21921 1.6229,1.5354 1.1968,1.10892 1.1496,0.3057 2.3501,0.39042 3.5328,0.48046 1.1322,0.0767 2.259,0.13123 3.3817,-0.0146 -0.2373,0.12855 0.3501,-0.11861 0.2555,-0.1245 -0.09,-0.006 -0.2946,0.133 -0.2649,0.0483 0.013,-0.0361 0.7181,-0.62685 0.8223,-0.72979 0.3438,-0.4122 1.2361,-1.39552 1.3207,-1.89149 0.4605,-0.90108 0.7913,-1.87144 0.9361,-2.87407 0.1442,-1.53586 0.3972,-3.05802 0.5658,-4.59112 0.1236,-1.13665 0.1469,-2.27991 0.1615,-3.42203 0.01,-1.09221 0.01,-2.18448 0,-3.27672 0,-1.32988 0,-2.65977 0,-3.98966 -2e-4,-1.1503 -2e-4,-2.3006 -2e-4,-3.4509 0.076,-0.94698 -0.069,-1.83052 -0.187,-2.7621 -0.1794,-1.37052 -0.2569,-2.75044 -0.2947,-4.13116 -0.1593,-0.94333 0.1757,-2.34243 -0.058,-3.23323 -0.1872,-1.17213 -0.3146,-2.35107 -0.3938,-3.53505 -0.1056,-0.86746 -0.1114,-1.81724 -0.3772,-2.65477 -0.1389,-0.70417 -0.2618,-1.37427 -0.6738,-1.96555 -0.083,0.0331 -0.5819,-0.68778 -0.6742,-0.7733 -0.1042,-0.0966 0.386,0.37632 0.2469,0.34748 -0.1231,-0.0255 -0.2197,-0.12201 -0.3296,-0.18301 -0.8083,-0.38933 -1.6284,-0.80184 -2.4959,-1.04448 -0.8733,-0.11845 -1.7277,-0.32547 -2.5854,-0.52605 -0.5767,-0.10941 -1.1667,-0.11833 -1.7517,-0.13422 0.3362,0.0196 0.4083,-0.0165 0.238,0.0439 -6.9468,1.32005 -8.8136,-8.50415 -1.8668,-9.8242 l 0,0 c 1.1354,-0.19765 0.4969,-0.11221 1.9205,-0.21543 1.2626,0.0386 2.5295,0.11065 3.7641,0.39904 1.1052,0.26377 2.2115,0.43581 3.327,0.73209 1.5187,0.50416 3.0081,1.12398 4.4149,1.88881 1.972,1.14328 3.1834,2.3432 4.4142,4.22367 0.8707,1.54098 1.5216,3.15085 1.8227,4.9026 0.2734,1.363 0.4954,2.7471 0.5853,4.13479 0.067,1.08103 0.2189,2.15132 0.3686,3.2236 0.099,1.30913 0.089,2.61674 0.1009,3.9293 0.026,1.04998 0.082,2.09945 0.2193,3.14164 0.1686,1.33405 0.3298,2.66785 0.2659,4.01567 0,1.14942 0,2.29883 2e-4,3.44825 4e-4,1.32601 8e-4,2.65202 0,3.97803 0,1.14074 0.01,2.28151 0,3.42222 -0.02,1.46757 -0.06,2.93611 -0.222,4.39616 -0.1966,1.75187 -0.4665,3.4939 -0.6607,5.24586 -0.3776,1.96913 -0.9426,3.89762 -1.8831,5.67984 -0.9079,1.66606 -1.9729,3.26477 -3.3451,4.58984 -1.8417,1.71109 -3.9009,3.14114 -6.4633,3.46681 -1.7919,0.21367 -3.5854,0.20365 -5.3843,0.059 -2.4197,-0.19338 -4.8769,-0.44749 -7.117,-1.45277 -1.9062,-1.02114 -3.4149,-2.28229 -4.7487,-3.99672 -1.8232,-2.37862 -3.4619,-4.91431 -4.4946,-7.74617 -0.7291,-2.28841 -1.4876,-4.57983 -1.8669,-6.95878 -0.1812,-1.25392 -0.5034,-2.48108 -0.8094,-3.70848 -0.5322,-1.71893 -0.9741,-3.44611 -1.003,-5.25988 0,-1.51057 0,-3.02114 0,-4.53171 0,-1.65216 0,-3.30432 0,-4.95647 0,-1.12293 0,-2.24587 1e-4,-3.3688 0,-0.99873 10e-5,-1.99745 -5e-4,-2.99617 -9e-4,-0.99509 0,-1.99017 -0.01,-2.98524 0,-1.06344 -0.016,-2.12714 0.01,-3.19041 0.068,-1.69716 0.2638,-3.38896 1.0585,-4.92261 0.8249,-1.41905 1.8043,-2.76059 3.0842,-3.80924 0.9831,-0.84157 1.9489,-1.72119 3.1165,-2.30645 1.494,-0.75751 3.0569,-1.39998 4.735,-1.60458 1.1965,-0.10417 2.3895,-0.11374 3.5905,-0.0957 0.9976,-6.3e-4 1.9953,-0.002 2.9929,-0.004 1.0602,-0.002 2.1207,-0.006 3.1807,0.0203 1.3471,0.0472 2.6947,0.14169 4.0178,0.41448 1.1319,0.23134 2.2574,0.45222 3.4035,0.6068 6.9338,1.38675 4.9726,11.19256 -1.9611,9.8058 z"
         id="path5598"
         style="opacity:0.7;fill:#b1b1b1;fill-opacity:1;fill-rule:evenodd;stroke:#000000;stroke-width:0.64226347;stroke-linecap:square;stroke-linejoin:miter;stroke-miterlimit:4;stroke-dasharray:15.41432335, 0.64226347;stroke-dashoffset:0;stroke-opacity:1" />
      <path
         inkscape:connector-curvature="0"
         d="m 1177.8206,737.12291 c 0.011,0.0257 0.052,0.0975 0.033,0.077 -0.501,-0.54197 -0.9625,-1.10483 -1.5078,-1.60459 0.066,0.0711 0.182,0.11766 0.1979,0.21336 0.019,0.11366 -0.2226,-0.0605 -0.3311,-0.0991 -0.5643,-0.20101 -1.1046,-0.42803 -1.6797,-0.59853 -1.111,-0.35311 -2.2062,-0.76644 -3.3295,-1.07928 -0.5859,-0.13417 -1.1902,-0.14679 -1.7883,-0.16511 -0.9375,-0.0185 -1.8753,-0.0122 -2.8129,-0.01 -1.0029,0.003 -2.0059,0.004 -3.0089,0.005 -0.8407,0.003 -1.7139,-0.0168 -2.5321,0.032 -0.3236,0.0739 -0.6634,0.0637 -0.9856,0.14391 -0.102,0.0254 0.2942,-0.12121 0.3147,-0.0181 0.021,0.10441 -0.1944,0.0869 -0.293,0.12698 -0.8061,0.32796 -0.3365,0.11016 -0.8767,0.37093 -0.9458,0.44135 -1.9042,0.851 -2.8445,1.29872 -1.1247,0.50922 -0.5893,0.14565 -1.4746,0.85495 0.025,-0.009 0.094,-0.0455 0.075,-0.0263 -0.2313,0.24112 -0.6078,0.54266 -0.8499,0.78184 -0.017,0.017 -0.056,0.0742 -0.034,0.0639 0.05,-0.0238 0.1601,-0.15399 0.128,-0.10826 -0.158,0.22502 -0.3388,0.43315 -0.5082,0.64972 -0.3628,0.64232 -0.8735,1.23371 -1.1421,1.92641 -0.309,0.99425 -0.5763,2.00281 -0.9148,2.99111 -0.3459,1.13232 -0.6688,2.27513 -0.9539,3.42495 -0.1011,0.90245 -0.4424,1.7553 -0.6055,2.64349 -0.08,0.61352 -0.086,1.23382 -0.096,1.85151 -0.01,1.08484 -0.01,2.16976 0,3.25463 0,1.04834 0,2.09668 0,3.14502 3e-4,1.1382 2e-4,2.2764 2e-4,3.4146 0,1.03025 0,2.06049 0,3.09074 0,1.12054 0,2.24107 0,3.3616 0,1.1455 0,2.29099 0,3.43649 0,1.06503 0,2.13006 0,3.19509 0.014,0.59769 -0.01,0.4881 0.2126,1.00609 0.023,0.0538 -0.022,-0.11481 -0.033,-0.17222 0.4518,0.92812 0.7983,1.90227 1.2149,2.84607 0.5913,0.74961 1.0454,1.83454 1.5802,2.71021 0.4046,0.8279 0.9858,1.54458 1.5138,2.29493 0.4376,0.47123 1.3119,2.38951 1.7455,2.67732 1.1044,1.28517 0.1611,0.23264 0.2,0.25345 0.3873,0.20762 0.6853,0.55047 1.0261,0.82794 0.5768,0.44918 1.1709,0.8678 1.7879,1.26167 0.7137,0.26944 1.4586,0.53284 2.2023,0.74984 0.535,0.11748 1.0872,0.12306 1.6326,0.13828 1.0382,0.0166 2.0767,0.009 3.1151,0.006 -0.521,0.21386 2.0074,-0.11478 1.4234,-0.14188 0.8688,-0.28389 1.6878,-0.69733 2.5376,-1.04066 0.6281,-0.27655 1.1878,-0.64182 1.7531,-1.02619 0.7585,-0.62995 1.679,-1.06337 2.425,-1.70703 0.1139,-0.0209 1.1642,-1.1752 0.739,-0.7888 -0.022,0.0244 -0.044,0.0488 -0.066,0.0733 2.4155,-6.64571 11.814,-3.22973 9.3985,3.41599 l 0,0 c -0.1389,0.34635 -0.2778,0.69271 -0.4168,1.03906 -0.9141,1.65438 -2.0838,3.07124 -3.5978,4.21735 -0.9593,0.7102 -1.9557,1.36663 -2.9246,2.06364 -1.1578,0.76734 -2.3483,1.49417 -3.6409,2.01506 -1.0919,0.40119 -2.1182,0.98158 -3.2467,1.29003 -1.4231,0.39628 -2.8707,0.67401 -4.3581,0.59013 -1.1508,0.003 -2.3018,0.0118 -3.4524,-0.0112 -1.436,-0.0477 -2.8762,-0.1576 -4.26,-0.57499 -1.6089,-0.50551 -3.2438,-1.02586 -4.6899,-1.90867 -0.9778,-0.63613 -1.9275,-1.30993 -2.837,-2.04102 -0.8809,-0.68776 -1.941,-1.52368 -2.6274,-2.54078 -0.739,-0.99039 -1.4065,-2.03005 -2.0486,-3.08594 -0.713,-1.01437 -1.4751,-2.00162 -2.0327,-3.11443 -0.6951,-1.25518 -1.4077,-2.49799 -2.0961,-3.7584 -0.3479,-0.84042 -0.6687,-1.69181 -1.0627,-2.50321 -0.6786,-1.61103 -1.1853,-3.28868 -1.1173,-5.06129 0,-1.06503 0,-2.13006 0,-3.19509 0,-1.1455 0,-2.29099 0,-3.43649 0,-1.12055 0,-2.2411 0,-3.36166 0,-1.03024 0,-2.06047 0,-3.09071 0,-1.13694 10e-5,-2.27388 -2e-4,-3.41081 -4e-4,-1.04441 0,-2.08881 0,-3.13321 0,-1.14887 -0.01,-2.2978 0.01,-3.44662 0.023,-1.25608 0.065,-2.51765 0.3126,-3.75347 0.2304,-1.04197 0.5359,-1.96359 0.6924,-3.0175 0.3714,-1.45067 0.7628,-2.89924 1.2265,-4.3229 0.5197,-1.31274 0.687,-2.75833 1.3491,-4.02458 0.668,-1.3174 1.4433,-2.58879 2.3148,-3.78153 0.4081,-0.47845 0.1127,-0.12523 0.8504,-1.08876 0.6173,-0.7268 1.3871,-1.30265 2.0657,-1.96655 1.0083,-0.76167 2.0687,-1.52444 3.268,-1.95251 0.9906,-0.47032 1.9983,-0.89793 2.9899,-1.36645 1.5731,-0.7017 3.1898,-1.34398 4.9273,-1.46844 1.1955,-0.0966 2.3882,-0.10515 3.5876,-0.0886 0.9966,-6.9e-4 1.9933,-0.002 2.9899,-0.005 1.0588,-0.003 2.1178,-0.01 3.1764,0.0155 1.4292,0.0512 2.8617,0.16271 4.2438,0.55739 1.1712,0.34747 2.3288,0.74087 3.4878,1.12676 2.0123,0.63426 4.0398,1.35383 5.6815,2.72535 0.9458,0.88951 1.8122,1.85378 2.6546,2.84107 4.2426,5.65685 -3.7574,11.65685 -8,6 z"
         id="path5600"
         style="opacity:0.7;fill:#b1b1b1;fill-opacity:1;fill-rule:evenodd;stroke:#000000;stroke-width:0.64226347;stroke-linecap:square;stroke-linejoin:miter;stroke-miterlimit:4;stroke-dasharray:15.41432335, 0.64226347;stroke-dashoffset:0;stroke-opacity:1" />
      <ellipse
         ry="13.5"
         rx="5.75"
         cy="757.36212"
         cx="1144.75"
         id="path5620"
         style="opacity:0.7;fill:#ffffff;fill-opacity:1;fill-rule:evenodd;stroke:#000000;stroke-width:0.64226347;stroke-linecap:square;stroke-linejoin:miter;stroke-miterlimit:4;stroke-dasharray:15.41432335, 0.64226347;stroke-dashoffset:0;stroke-opacity:1" />
      <path
         transform="translate(0,532.36214)"
         inkscape:connector-curvature="0"
         id="path5622"
         d="m 1100.7148,213.37178 c -0.6806,-0.12589 -1.6352,-0.38656 -2.1213,-0.57925 -1.5717,-0.62296 -3.7674,-0.99464 -5.922,-1.00242 -1.8809,-0.007 -2.0934,-0.0428 -2.8409,-0.4823 -0.8496,-0.49948 -1.6539,-1.49895 -1.8487,-2.29742 -0.1028,-0.42121 -0.036,-0.51483 0.5946,-0.83668 1.6849,-0.85956 3.3079,-1.16301 6.2163,-1.16224 3.2111,8.5e-4 4.2191,0.21392 6.6291,1.40127 1.5995,0.78801 3.8422,2.51392 4.4275,3.40716 0.3082,0.47032 0.3064,0.47616 -0.2879,0.97238 -1.0454,0.87267 -2.3916,1.03364 -4.8467,0.5795 z"
         style="opacity:0.7;fill:#ffffff;fill-opacity:1;fill-rule:evenodd;stroke:#000000;stroke-width:0.64226347;stroke-linecap:square;stroke-linejoin:miter;stroke-miterlimit:4;stroke-dasharray:15.41432335, 0.64226347;stroke-dashoffset:0;stroke-opacity:1" />
      <path
         inkscape:connector-curvature="0"
         id="path4162-9"
         d="m 1026.5446,799.13845 c -1.2685,-3.78125 -17.7448,-51.74437 -36.61406,-106.58473 -18.8692,-54.84034 -34.3077,-99.76864 -34.3077,-99.84068 0,-0.072 3.0938,1.62017 6.875,3.76046 l 6.875,3.89144 0.6361,3.19925 c 0.3499,1.75959 1.6267,8.26175 2.8374,14.44925 11.7528,60.06565 30.87516,111.07769 56.84266,151.63675 2.5048,3.91229 4.8063,7.50701 5.1143,7.98826 1.1765,1.83801 0.6302,3.36525 10.2386,-28.625 7.0009,-23.30842 10.5095,-35.69225 18.3451,-64.75001 3.4853,-12.925 6.3875,-23.55457 6.4493,-23.62127 0.1819,-0.19627 12.4394,-2.64595 12.5403,-2.50619 0.1909,0.26453 -52.9397,147.87747 -53.2259,147.87747 -0.1649,0 -1.3376,-3.09375 -2.6061,-6.875 z"
         style="opacity:0.7;fill:#b1b1b1;fill-opacity:1;fill-rule:evenodd;stroke:#000000;stroke-width:0.64226347;stroke-linecap:square;stroke-linejoin:miter;stroke-miterlimit:4;stroke-dasharray:15.41432335, 0.64226347;stroke-dashoffset:0;stroke-opacity:1" />
      <ellipse
         ry="4.25"
         rx="5"
         cy="654.82727"
         cx="950"
         id="path3346-7"
         style="opacity:0.7;fill:#c8b7b7;fill-opacity:1;fill-rule:evenodd;stroke:#000000;stroke-width:0.64226347;stroke-linecap:square;stroke-linejoin:miter;stroke-miterlimit:4;stroke-dasharray:15.41432336, 0.64226347;stroke-dashoffset:0;stroke-opacity:1" />
      <path
         inkscape:connector-curvature="0"
         id="path4160-0"
         d="m 944.6138,783.63903 c 0.1601,-6.1875 0.5412,-34.3125 0.8471,-62.5 0.3059,-28.1875 0.664,-51.79226 0.7957,-52.45504 0.2272,-1.14344 0.3933,-1.05398 3.249,1.75 3.4724,3.40936 3.3555,2.08998 1.2584,14.20504 -4.7784,27.606 -4.8656,56.14708 -0.2736,89.5 0.5491,3.9875 1.105,8.4875 1.2355,10 l 0.2372,2.75 -3.8201,4 -3.8201,4 0.2909,-11.25 z"
         style="opacity:0.7;fill:#c8b7b7;fill-opacity:1;fill-rule:evenodd;stroke:#000000;stroke-width:0.64226347;stroke-linecap:square;stroke-linejoin:miter;stroke-miterlimit:4;stroke-dasharray:15.41432335, 0.64226347;stroke-dashoffset:0;stroke-opacity:1" />
    </g>
    <path
       style="opacity:0.5;fill:#000000;fill-opacity:1;fill-rule:evenodd;stroke:#000000;stroke-width:0.64226347;stroke-linecap:square;stroke-linejoin:bevel;stroke-miterlimit:4;stroke-dasharray:15.41432353, 0.64226349;stroke-dashoffset:0;stroke-opacity:0;filter:url(#filter7017)"
       d="m 914.40454,1024.2815 c -21.58924,-24.1433 -38.23779,-47.6998 -49.19392,-69.60588 -10.11151,-20.21734 -10.49996,-21.57099 -7.94748,-27.69518 1.47599,-3.54139 6.80598,-18.1917 11.84441,-32.55624 7.82135,-22.29859 9.18818,-28.52087 9.34811,-42.55555 l 0.18738,-16.4382 4.36018,4.05651 c 6.01055,5.59194 16.06004,24.84877 18.97182,36.35374 2.70323,10.68095 7.1406,13.41988 4.88227,3.01354 -4.80213,-22.12818 -17.45454,-41.79071 -34.2784,-53.27047 -10.9541,-7.47452 -10.17431,-7.41747 -45.62191,-3.33818 -14.0348,1.61514 -16.40493,-0.3931 -22.10282,-18.72801 -6.70883,-21.58789 -10.09838,-45.55653 -10.09838,-71.40894 0,-22.05745 0.43512,-24.90884 4.97619,-32.61025 3.00059,-5.08882 7.55834,-9.50235 11.48022,-11.11693 5.86283,-2.41362 8.02061,-2.14369 21.88723,2.73801 8.46075,2.97856 17.69003,5.41559 20.50949,5.41559 5.54092,0 12.64963,-6.29131 15.37136,-13.60386 1.56012,-4.19164 2.45165,-3.42961 11.00398,9.40548 10.60832,15.92065 14.85663,30.35273 13.1502,44.67282 -2.79285,23.43724 -24.9427,47.63089 -58.22543,63.59799 -18.22833,8.74489 -23.4554,12.45112 -17.56035,12.45112 5.45136,0 35.89609,-16.49979 47.09871,-25.52559 31.81031,-25.62903 40.57402,-53.59476 26.42258,-84.31668 -4.91995,-10.68091 -18.79702,-30.79874 -21.23315,-30.78207 -0.60538,0.004 -2.78506,4.07829 -4.84373,9.05364 -4.97415,12.02135 -9.33616,12.90906 -30.03018,6.11142 -17.10079,-5.61734 -23.81822,-5.53714 -30.40557,0.36301 -5.62813,5.04099 -4.46129,-0.81004 2.60309,-13.05305 7.01762,-12.16196 17.94279,-20.7832 32.91699,-25.97535 8.29385,-2.87578 16.75989,-3.62906 40.78699,-3.62906 26.07157,0 32.44526,0.65622 45.48104,4.68274 23.30043,7.19703 30.94497,12.39786 36.55539,24.86978 3.8632,8.58784 4.79075,14.10467 4.83192,28.73935 0.0463,16.43818 -0.55808,19.34204 -6.54181,31.43347 -7.87012,15.9033 -25.8442,33.54705 -46.7505,45.89138 -16.90752,9.98317 -51.47862,24.23911 -70.95743,29.26039 -7.79007,2.00814 -14.16379,4.38094 -14.16379,5.27291 0,2.89891 5.55053,1.75063 29.81231,-6.16755 24.49276,-7.99356 51.7147,-20.51353 66.43602,-30.55539 l 8.31832,-5.67418 1.05595,11.57411 c 1.20227,13.17799 9.96012,32.15345 20.19321,43.7522 9.05436,10.26275 21.39648,18.82798 27.13031,18.82798 l 4.77884,0 -4.93144,7.53385 c -7.42028,11.33607 -9.92119,23.41671 -8.4715,40.92142 l 1.26765,15.30634 -10.91812,8.37181 c -15.73027,12.06164 -30.38266,28.1098 -36.34862,39.8111 -9.91349,19.44376 -10.76386,45.04621 -2.28913,68.91941 1.68134,4.7362 2.73389,8.9324 2.33904,9.3249 -0.39486,0.3924 -6.28423,-5.5113 -13.08748,-13.1194 z"
       id="path6963"
       inkscape:connector-curvature="0"
       inkscape:export-filename="C:\Users\thadeus\Desktop\g5663.png"
       inkscape:export-xdpi="90"
       inkscape:export-ydpi="90"
       transform="matrix(2.1355087,0,0,2.5,-1144.6194,-1585.3289)" />
  </g>
</svg>
